<?xml version="1.0" standalone="no"?><!DOCTYPE svg PUBLIC "-//W3C//DTD SVG 1.1//EN" "http://www.w3.org/Graphics/SVG/1.1/DTD/svg11.dtd"><svg t="1715687031349" class="icon" viewBox="0 0 1024 1024" version="1.1" xmlns="http://www.w3.org/2000/svg" p-id="2826" xmlns:xlink="http://www.w3.org/1999/xlink" width="200" height="200"><path d="M549.92896 47.4112c0 26.17344-16.9984 47.4112-37.92896 47.4112-20.95104 0-37.92896-21.23776-37.92896-47.4112C474.07104 21.21728 491.06944 0 512 0c20.95104 0 37.92896 21.21728 37.92896 47.4112zM512 853.34016c188.5184 0 341.34016-152.82176 341.34016-341.34016 0-188.5184-152.82176-341.34016-341.34016-341.34016-188.5184 0-341.34016 152.82176-341.34016 341.34016 0 188.5184 152.82176 341.34016 341.34016 341.34016z m0-81.92c-143.27808 0-259.42016-116.14208-259.42016-259.42016 0-143.27808 116.14208-259.42016 259.42016-259.42016 143.27808 0 259.42016 116.14208 259.42016 259.42016 0 143.27808-116.14208 259.42016-259.42016 259.42016zM512 1024c20.95104 0 37.92896-21.21728 37.92896-47.4112 0-26.17344-16.9984-47.4112-37.92896-47.4112-20.95104 0-37.92896 21.23776-37.92896 47.4112 0 26.19392 16.9984 47.4112 37.92896 47.4112zM203.10016 859.81184c-15.01184 21.46304-41.10336 29.10208-58.24512 17.1008-17.16224-12.02176-18.90304-39.15776-3.8912-60.60032 15.03232-21.44256 41.10336-29.0816 58.2656-17.08032 17.16224 12.02176 18.88256 39.13728 3.8912 60.60032zM199.22944 213.1968c17.16224-12.02176 18.88256-39.13728 3.8912-60.57984-15.03232-21.44256-41.12384-29.0816-58.2656-17.08032-17.16224 12.00128-18.90304 39.1168-3.8912 60.57984 15.03232 21.44256 41.10336 29.0816 58.2656 17.08032zM888.27904 201.89184c-15.01184 21.46304-41.10336 29.10208-58.2656 17.08032-17.16224-12.00128-18.88256-39.1168-3.8912-60.57984 15.03232-21.44256 41.12384-29.0816 58.28608-17.08032 17.14176 12.02176 18.88256 39.13728 3.87072 60.57984zM881.88928 857.94816c17.16224-12.02176 18.90304-39.15776 3.8912-60.60032-15.03232-21.44256-41.10336-29.0816-58.2656-17.08032-17.16224 12.02176-18.90304 39.13728-3.8912 60.60032 15.03232 21.44256 41.12384 29.0816 58.2656 17.08032zM976.5888 474.07104c26.19392 0 47.4112 16.9984 47.4112 37.92896 0 20.95104-21.21728 37.92896-47.4112 37.92896-26.17344 0-47.4112-16.9984-47.4112-37.92896 0-20.95104 21.23776-37.92896 47.4112-37.92896zM94.8224 512c0-20.95104-21.23776-37.92896-47.4112-37.92896C21.21728 474.07104 0 491.06944 0 512c0 20.95104 21.21728 37.92896 47.4112 37.92896 26.17344 0 47.4112-16.9984 47.4112-37.92896z" fill="#d81e06" p-id="2827"></path></svg>